<?xml version="1.0" encoding="utf-8"?>
<!-- Generator: Adobe Illustrator 24.1.2, SVG Export Plug-In . SVG Version: 6.00 Build 0)  -->
<svg version="1.1" id="icon" xmlns="http://www.w3.org/2000/svg" xmlns:xlink="http://www.w3.org/1999/xlink" x="0px" y="0px"
	 viewBox="0 0 512 512" style="enable-background:new 0 0 512 512;" xml:space="preserve">
<style type="text/css">
	.st0{fill:#F0F5F9;}
	.st1{fill:#D9E2E9;}
	.st2{opacity:0.25;}
	.st3{fill:#FFFFFF;}
	.st4{fill:#2F3A5A;}
	.st5{opacity:0.5;}
	.st6{fill:none;stroke:#2F3A5A;stroke-width:10;stroke-linecap:round;stroke-miterlimit:10;}
</style>
<path class="st0" d="M508,229c0-73.2-59.3-132.5-132.5-132.5c-2.5,0-4.9,0.2-7.3,0.4c-21.5-62-89.2-94.8-151.2-73.3
	c-34.4,11.9-61.4,38.9-73.3,73.3c-2.4-0.1-4.8-0.4-7.3-0.4C63.3,96.5,4,155.8,4,228.9c0,55.2,34.1,104.6,85.8,124V495h332.4V352.9
	C473.8,333.5,508,284.1,508,229L508,229z"/>
<path class="st1" d="M508,229c0-73.2-59.3-132.5-132.5-132.5c-2.5,0-4.9,0.2-7.3,0.4c-21.5-62-89.2-94.8-151.2-73.3
	c-34.4,11.9-61.4,38.9-73.3,73.3c-2.4-0.1-4.8-0.4-7.3-0.4C63.3,96.5,4,155.8,4,228.9c0,55.2,34.1,104.6,85.8,124V495h332.4V352.9
	C473.8,333.5,508,284.1,508,229L508,229z"/>
<path class="st0" d="M459.1,229c0-73.2-47.3-132.5-105.7-132.5c-2,0-3.9,0.2-5.8,0.4C334.7,50.4,299.5,17,258,17
	s-76.6,33.4-89.5,79.9c-1.9-0.1-3.8-0.4-5.8-0.4C104.3,96.6,57,155.9,57,229c0,56.7,28.5,104.9,68.4,123.8V495h265.2V352.9
	C430.6,334,459.1,285.7,459.1,229L459.1,229z"/>
<g class="st2">
	<path class="st3" d="M168.2,277.7c-0.9-15-1.1-31.4-1.1-48.7c0-73.2,30.5-132.5,68.2-132.5c1.3,0,2.5,0.2,3.7,0.4
		c6.7-37.6,8-70.2,28-79.9c-26.8,0-49.5,33.4-57.7,79.9c-1.3-0.1-2.5-0.4-3.8-0.4c-37.6,0-68.1,59.3-68.1,132.5
		c0,16.3,1.6,32.6,4.8,48.7H168.2z"/>
</g>
<path class="st4" d="M422.2,499H89.8c-2.2,0-4-1.8-4-4V355.6c-69.9-28-103.9-107.4-76-177.3c20.7-51.8,70.9-85.7,126.6-85.7
	c1.5,0,3,0.1,4.5,0.2c23.8-63.5,94.6-95.7,158.1-71.9c33.2,12.5,59.4,38.7,71.9,71.9c1.5-0.1,3-0.2,4.5-0.2
	c75.3,0,136.4,61.1,136.4,136.4c0,55.8-33.9,105.9-85.7,126.6V495C426.2,497.2,424.4,499,422.2,499C422.2,499,422.2,499,422.2,499
	L422.2,499z M93.8,491h324.4V352.9c0-1.7,1-3.2,2.6-3.7c66.4-25,99.9-99,75-165.4c-18.8-50.1-66.7-83.2-120.2-83.2
	c-1.6,0-3.2,0.1-4.8,0.2l-2.3,0.1c-1.8,0.1-3.4-1-4-2.7c-20.8-59.9-86.2-91.6-146.1-70.9C185.2,38.9,159,65,147.5,98.2
	c-0.6,1.7-2.2,2.8-4,2.7l-2.3-0.1c-1.6-0.1-3.2-0.2-4.8-0.2C65.6,100.5,8,158,8,228.9c0,53.5,33.1,101.4,83.2,120.2
	c1.6,0.6,2.6,2.1,2.6,3.7L93.8,491z"/>
<g class="st5">
	<path class="st1" d="M147.9,352.8c-7.6,36.9-7.6,96.8,0,133.7C155.5,449.6,155.5,389.7,147.9,352.8z"/>
	<path class="st1" d="M201.9,352.8c-7.6,36.9-7.6,96.8,0,133.7C209.5,449.6,209.5,389.7,201.9,352.8z"/>
	<path class="st1" d="M255.9,352.8c-7.6,36.9-7.6,96.8,0,133.7C263.5,449.6,263.5,389.7,255.9,352.8z"/>
	<path class="st1" d="M309.9,352.8c-7.6,36.9-7.6,96.8,0,133.7C317.5,449.6,317.5,389.7,309.9,352.8z"/>
	<path class="st1" d="M363.9,352.8c-7.6,36.9-7.6,96.8,0,133.7C371.6,449.6,371.6,389.7,363.9,352.8z"/>
</g>
<line class="st6" x1="82.7" y1="186.5" x2="433.5" y2="186.5"/>
<line class="st6" x1="82.7" y1="228" x2="433.5" y2="228"/>
<line class="st6" x1="82.7" y1="269.7" x2="433.5" y2="269.6"/>
</svg>
