<?xml version="1.0" encoding="utf-8"?>
<!-- Generator: Adobe Illustrator 24.1.2, SVG Export Plug-In . SVG Version: 6.00 Build 0)  -->
<svg version="1.1" id="Capa_1" xmlns="http://www.w3.org/2000/svg" xmlns:xlink="http://www.w3.org/1999/xlink" x="0px" y="0px"
	 viewBox="0 0 512 512" style="enable-background:new 0 0 512 512;" xml:space="preserve">
<style type="text/css">
	.st0{fill:#C1E5EF;}
	.st1{fill:#E4B61A;}
	.st2{fill:#C29A15;}
	.st3{fill:#FEE970;}
	.st4{fill:#2C3258;}
	.st5{fill:#FFFFFF;}
	.st6{fill:#1D213B;}
</style>
<path class="st0" d="M374,121.7c8.9-62.2-5.7-110.3-5.7-111.7c0,1.2-272.3,0-272.3,0c0,1.4-14.6,49.5-5.7,111.7
	c15,104.5,80.9,151.5,120.5,165.3v135.5c0,12.9-6.4,24.9-17.2,32.1l-61.2,40.8c-3,2-1.6,6.6,2,6.6c38.1,0,157.4,0.1,195.4,0.1
	c3.5,0,4.9-4.6,2-6.6l-61.2-40.8c-10.7-7.1-17.2-19.2-17.2-32.1V287C293.1,273.2,359,226.2,374,121.7z"/>
<path class="st1" d="M122.5,108.2c0.3,6.5,0.9,13.4,1.9,20.5c13.8,96.7,85.1,128.6,107.7,128.9c22.6-0.4,93.9-32.3,107.7-128.9
	c1-7.1,1.6-14,1.9-20.5H122.5z"/>
<path class="st2" d="M297.4,108.2c-0.2,5.2-0.7,10.7-1.5,16.4c-11,77.1-67.9,102.5-85.9,102.8c-18-0.3-74.9-25.7-85.9-102.8
	c-0.8-5.7-1.3-11.2-1.5-16.4c0.3,6.5,0.9,13.4,1.9,20.5c13.8,96.7,85.1,128.6,107.7,128.9c22.6-0.4,93.9-32.3,107.7-128.9
	c1-7.1,1.6-14,1.9-20.5H297.4z"/>
<path class="st3" d="M67.1,249.8l8.5,23.9c0.4,1,1.1,1.8,2,2.2l21.2,9.6c3,1.4,3,6.1,0,7.5l-21.2,9.6c-0.9,0.4-1.6,1.2-2,2.2
	l-8.5,23.9c-1.2,3.4-5.4,3.4-6.6,0l-8.5-23.9c-0.4-1-1.1-1.8-2-2.2l-21.2-9.6c-3-1.4-3-6.1,0-7.5l21.2-9.6c0.9-0.4,1.6-1.2,2-2.2
	l8.5-23.9C61.6,246.4,65.9,246.4,67.1,249.8L67.1,249.8z"/>
<circle class="st1" cx="429.8" cy="191.7" r="18.5"/>
<path class="st1" d="M35.9,188.8c0,4.4-3.6,8-8,8s-8-3.6-8-8s3.6-8,8-8C32.4,180.8,35.9,184.4,35.9,188.8z"/>
<path class="st3" d="M466.9,27.8l6.3,17.7c0.3,0.8,0.8,1.4,1.5,1.7l15.7,7.1c2.2,1,2.2,4.5,0,5.5l-15.7,7.1
	c-0.7,0.3-1.2,0.9-1.5,1.7l-6.3,17.7c-0.9,2.5-4,2.5-4.9,0l-6.3-17.7c-0.3-0.8-0.8-1.4-1.5-1.7l-15.7-7.1c-2.2-1-2.2-4.5,0-5.5
	l15.7-7.1c0.7-0.3,1.2-0.9,1.5-1.7l6.3-17.7C462.8,25.3,466,25.3,466.9,27.8z"/>
<path class="st4" d="M284.7,512c-51.7,0-123.8-0.1-150.3-0.1c-6,0-11.3-3.9-13-9.7c-1.8-5.8,0.5-11.9,5.5-15.3l61.2-40.8
	c7.9-5.3,12.7-14.2,12.7-23.7l-0.4-128.3c-23.9-9.8-47.9-27.3-66.8-49.1c-28.3-32.5-46.2-73.5-53.2-121.9
	C75,85.6,76.8,46.4,85.8,9.7c0.1-0.5,0.2-0.9,0.3-1.2c0.3-2.1,1.3-4,2.8-5.6C90.8,1,93.4,0,96,0c102.8,0.4,271.7,0,272.2,0
	c5,0,9.2,3.7,9.9,8.5c0.1,0.3,0.2,0.7,0.3,1.2c8.9,36.7,10.8,75.9,5.4,113.5C377,171.6,359,212.6,330.5,245
	c-24.7,28.1-50.6,42.2-67,48.9v128.5c0,9.5,4.7,18.4,12.7,23.7l61.2,40.8c5,3.4,7.2,9.5,5.5,15.3c-1.7,5.8-7,9.7-13,9.7
	C319.6,512,303.5,512,284.7,512L284.7,512z M326.3,503.7L326.3,503.7L326.3,503.7z M155.7,491.9c40.8,0,111.3,0.1,152.9,0.1
	l-43.5-29c-13.5-9-21.6-24.1-21.6-40.4V287c0-4.3,2.7-8.1,6.7-9.5c10.8-3.8,38.9-15.8,65.2-45.7c25.9-29.5,42.2-67,48.6-111.5h0
	c4.7-33,3.5-67.5-3.7-100c-1.2,0-236.4-0.2-256.4-0.3c-7.2,32.6-8.5,67.1-3.7,100.2c6.4,44.5,22.7,82.1,48.4,111.6
	c26.3,30.1,54.2,42.1,65,45.8c4,1.4,6.7,5.2,6.7,9.5l0.4,135.2c0,16.3-8.1,31.4-21.6,40.4L155.7,491.9z M378.3,10L378.3,10
	C378.3,10,378.3,10,378.3,10z M358.2,10L358.2,10L358.2,10z M85.9,10L85.9,10C85.9,10,85.9,10,85.9,10z M85.9,10L85.9,10
	C85.9,10,85.9,10,85.9,10z M378.3,10L378.3,10C378.3,10,378.3,10,378.3,10z"/>
<path class="st4" d="M232.1,263.7c0,0-0.1,0-0.1,0c-13.6-0.2-38.6-9.7-61.1-29.9c-19.7-17.7-44.8-50.1-52.5-104.2
	c-1-6.9-1.7-14-2-21.1c-0.1-1.6,0.5-3.2,1.7-4.4c1.1-1.2,2.7-1.9,4.4-1.9h219.3c1.6,0,3.2,0.7,4.4,1.9c1.1,1.2,1.7,2.8,1.7,4.4
	c-0.3,7.1-1,14.2-2,21.1c-7.7,54.1-32.8,86.5-52.5,104.2C270.8,254,245.9,263.5,232.1,263.7C232.2,263.7,232.2,263.7,232.1,263.7
	L232.1,263.7z M128.9,114.2c0.4,4.6,0.9,9.2,1.5,13.6c7.2,50.5,30.4,80.6,48.6,97c21.5,19.3,43.5,26.6,53.1,26.8
	c9.6-0.2,31.6-7.5,53.1-26.8c18.2-16.4,41.4-46.4,48.6-97c0.6-4.5,1.1-9,1.5-13.6H128.9z"/>
<g>
	<path class="st5" d="M203.9,221c-2.1,0-4.3-0.7-6.1-2.1c-13.6-10.3-24.5-22.8-32.6-37c-2.7-4.8-1.1-10.9,3.8-13.7
		c4.8-2.7,10.9-1.1,13.7,3.8c6.8,11.9,16,22.3,27.4,31c4.4,3.4,5.3,9.7,1.9,14.1C209.9,219.6,207,221,203.9,221z"/>
	<path class="st5" d="M163.3,160.8c-4.5,0-8.6-3-9.7-7.6c-0.9-3.6-2.1-9-2.5-14.7c-0.3-5.5,3.9-10.3,9.4-10.6
		c5.6-0.3,10.3,3.9,10.6,9.4c0.2,3.1,0.8,6.5,1.9,11c1.4,5.4-1.9,10.8-7.3,12.2C165,160.7,164.1,160.8,163.3,160.8L163.3,160.8z"/>
	<path class="st5" d="M193.1,57.4C193.1,57.4,193.1,57.4,193.1,57.4c-7.5,0-14.9-0.1-22.1-0.2c-5.5-0.1-10-4.6-9.9-10.2
		c0.1-5.5,4.5-9.9,10-9.9h0.1c7.1,0.1,14.4,0.1,21.9,0.2c5.5,0,10,4.5,10,10.1C203.2,52.9,198.7,57.4,193.1,57.4L193.1,57.4z"/>
	<path class="st5" d="M141.2,57.2h-13.1c-5.5,0-10-4.5-10-10s4.5-10,10-10h13.1c5.5,0,10,4.5,10,10S146.7,57.2,141.2,57.2z"/>
</g>
<path class="st6" d="M260.9,214.9c-3.3,0-6-2.7-6-6v-11.4c0-3.3,2.7-6,6-6s6,2.7,6,6v11.4C266.9,212.3,264.2,214.9,260.9,214.9z"/>
<path class="st6" d="M285.3,191.9c-3.3,0-6-2.7-6-6v-11.4c0-3.3,2.7-6,6-6s6,2.7,6,6v11.4C291.3,189.2,288.6,191.9,285.3,191.9z"/>
</svg>
